<?xml version="1.0" encoding="UTF-8" standalone="no"?>
<svg
   xmlns:dc="http://purl.org/dc/elements/1.1/"
   xmlns:cc="http://creativecommons.org/ns#"
   xmlns:rdf="http://www.w3.org/1999/02/22-rdf-syntax-ns#"
   xmlns:svg="http://www.w3.org/2000/svg"
   xmlns="http://www.w3.org/2000/svg"
   xmlns:xlink="http://www.w3.org/1999/xlink"
   xmlns:sodipodi="http://sodipodi.sourceforge.net/DTD/sodipodi-0.dtd"
   xmlns:inkscape="http://www.inkscape.org/namespaces/inkscape"
   width="297mm"
   height="210mm"
   viewBox="0 0 297 210"
   version="1.1"
   id="svg8"
   inkscape:version="0.92.4 (5da689c313, 2019-01-14)"
   sodipodi:docname="tego5.svg">
  <defs
     id="defs2">
    <linearGradient
       id="linearGradient2092"
       inkscape:collect="always">
      <stop
         id="stop2088"
         offset="0"
         style="stop-color:#003380;stop-opacity:1;" />
      <stop
         id="stop2090"
         offset="1"
         style="stop-color:#003380;stop-opacity:0;" />
    </linearGradient>
    <linearGradient
       id="linearGradient2069"
       inkscape:collect="always">
      <stop
         id="stop2065"
         offset="0"
         style="stop-color:#003380;stop-opacity:1;" />
      <stop
         id="stop2067"
         offset="1"
         style="stop-color:#003380;stop-opacity:0;" />
    </linearGradient>
    <linearGradient
       id="linearGradient2061"
       inkscape:collect="always">
      <stop
         id="stop2057"
         offset="0"
         style="stop-color:#003380;stop-opacity:1;" />
      <stop
         id="stop2059"
         offset="1"
         style="stop-color:#003380;stop-opacity:0;" />
    </linearGradient>
    <linearGradient
       inkscape:collect="always"
       id="linearGradient1759">
      <stop
         style="stop-color:#0088aa;stop-opacity:1;"
         offset="0"
         id="stop1755" />
      <stop
         style="stop-color:#0088aa;stop-opacity:0;"
         offset="1"
         id="stop1757" />
    </linearGradient>
    <linearGradient
       inkscape:collect="always"
       id="linearGradient1085">
      <stop
         style="stop-color:#003380;stop-opacity:1;"
         offset="0"
         id="stop1081" />
      <stop
         style="stop-color:#003380;stop-opacity:0;"
         offset="1"
         id="stop1083" />
    </linearGradient>
    <linearGradient
       inkscape:collect="always"
       id="linearGradient1105">
      <stop
         style="stop-color:#000080;stop-opacity:1;"
         offset="0"
         id="stop1101" />
      <stop
         style="stop-color:#000080;stop-opacity:0;"
         offset="1"
         id="stop1103" />
    </linearGradient>
    <linearGradient
       inkscape:collect="always"
       xlink:href="#linearGradient1759"
       id="linearGradient1761"
       x1="22.785601"
       y1="9.5577621"
       x2="26.960299"
       y2="9.6687965"
       gradientUnits="userSpaceOnUse" />
    <linearGradient
       inkscape:collect="always"
       xlink:href="#linearGradient1759"
       id="linearGradient1789"
       gradientUnits="userSpaceOnUse"
       x1="23.432169"
       y1="9.5546274"
       x2="18.991379"
       y2="9.5172625" />
    <linearGradient
       inkscape:collect="always"
       xlink:href="#linearGradient1105"
       id="linearGradient1857"
       x1="27.678452"
       y1="34.148979"
       x2="16.673975"
       y2="34.484066"
       gradientUnits="userSpaceOnUse" />
    <linearGradient
       inkscape:collect="always"
       xlink:href="#linearGradient1105"
       id="linearGradient1865"
       x1="48.575588"
       y1="60.73642"
       x2="55.398315"
       y2="60.73642"
       gradientUnits="userSpaceOnUse" />
    <linearGradient
       inkscape:collect="always"
       xlink:href="#linearGradient1105"
       id="linearGradient1867"
       gradientUnits="userSpaceOnUse"
       x1="52.416222"
       y1="60.565662"
       x2="48.683762"
       y2="60.426666" />
    <linearGradient
       gradientUnits="userSpaceOnUse"
       y2="91.872871"
       x2="63.661118"
       y1="91.951279"
       x1="67.277573"
       id="linearGradient1198-6"
       xlink:href="#linearGradient1105"
       inkscape:collect="always" />
    <linearGradient
       y2="60.426666"
       x2="48.683762"
       y1="60.565662"
       x1="52.416222"
       gradientUnits="userSpaceOnUse"
       id="linearGradient1867-4"
       xlink:href="#linearGradient1105"
       inkscape:collect="always"
       gradientTransform="matrix(1.040125,0.265396,-0.265396,1.040125,-15.363471,-42.817202)" />
    <linearGradient
       gradientTransform="matrix(9.8866054,1.1088436e-7,-3.4921006e-7,9.886605,-782.18294,233.31561)"
       gradientUnits="userSpaceOnUse"
       y2="-27.035757"
       x2="56.086861"
       y1="-27.035757"
       x1="52.956467"
       id="linearGradient1161-0-8-5-8"
       xlink:href="#linearGradient1085"
       inkscape:collect="always" />
    <linearGradient
       inkscape:collect="always"
       xlink:href="#linearGradient1085"
       id="linearGradient1260-5-2-75-3-2"
       x1="56.68232"
       y1="75.844048"
       x2="52.75145"
       y2="75.785103"
       gradientUnits="userSpaceOnUse"
       gradientTransform="matrix(9.8866058,0,0,9.8866058,-335.74422,-610.46747)" />
    <linearGradient
       inkscape:collect="always"
       xlink:href="#linearGradient1085"
       id="linearGradient1252-0-6-5-2-7"
       x1="58.018604"
       y1="84.111465"
       x2="51.419521"
       y2="84.106239"
       gradientUnits="userSpaceOnUse"
       gradientTransform="matrix(9.8866058,0,0,9.8866058,-335.74422,-610.46748)" />
    <linearGradient
       gradientTransform="matrix(9.8866062,-1.3842872e-7,3.0492862e-8,9.8866063,-994.88128,220.81237)"
       gradientUnits="userSpaceOnUse"
       y2="-28.380674"
       x2="66.960365"
       y1="-28.380674"
       x1="63.829975"
       id="linearGradient1153-7-1-5-5"
       xlink:href="#linearGradient1085"
       inkscape:collect="always" />
    <linearGradient
       gradientTransform="matrix(4.4073515,0,0,4.4073515,-307.07589,-730.20735)"
       gradientUnits="userSpaceOnUse"
       y2="175.60689"
       x2="74.03569"
       y1="175.43367"
       x1="80.116119"
       id="linearGradient2063"
       xlink:href="#linearGradient2061"
       inkscape:collect="always" />
    <linearGradient
       gradientUnits="userSpaceOnUse"
       y2="175.78621"
       x2="82.987274"
       y1="175.95944"
       x1="89.296913"
       id="linearGradient2071"
       xlink:href="#linearGradient2069"
       inkscape:collect="always" />
    <linearGradient
       gradientTransform="matrix(4.4073515,0,0,4.4073515,-307.07589,-730.20735)"
       y2="175.78621"
       x2="82.987274"
       y1="175.61298"
       x1="87.160408"
       gradientUnits="userSpaceOnUse"
       id="linearGradient2086"
       xlink:href="#linearGradient2069"
       inkscape:collect="always" />
    <linearGradient
       gradientTransform="matrix(4.4073515,0,0,4.4073515,-307.07589,-730.20735)"
       gradientUnits="userSpaceOnUse"
       y2="175.47929"
       x2="90.449829"
       y1="175.3638"
       x1="95.026405"
       id="linearGradient2094"
       xlink:href="#linearGradient2092"
       inkscape:collect="always" />
  </defs>
  <sodipodi:namedview
     id="base"
     pagecolor="#ffffff"
     bordercolor="#666666"
     borderopacity="1.0"
     inkscape:pageopacity="0.0"
     inkscape:pageshadow="2"
     inkscape:zoom="0.39585237"
     inkscape:cx="879.47651"
     inkscape:cy="394.52174"
     inkscape:document-units="mm"
     inkscape:current-layer="layer1"
     inkscape:document-rotation="0"
     showgrid="false"
     inkscape:window-width="1600"
     inkscape:window-height="945"
     inkscape:window-x="-9"
     inkscape:window-y="-9"
     inkscape:window-maximized="1"
     showguides="false">
    <inkscape:grid
       type="xygrid"
       id="grid835" />
  </sodipodi:namedview>
  <metadata
     id="metadata5">
    <rdf:RDF>
      <cc:Work
         rdf:about="">
        <dc:format>image/svg+xml</dc:format>
        <dc:type
           rdf:resource="http://purl.org/dc/dcmitype/StillImage" />
        <dc:title></dc:title>
      </cc:Work>
    </rdf:RDF>
  </metadata>
  <g
     inkscape:label="Capa 1"
     inkscape:groupmode="layer"
     id="layer1"
     style="display:inline"
     transform="translate(0,-87)">
    <path
       inkscape:export-ydpi="600"
       inkscape:export-xdpi="600"
       inkscape:export-filename="C:\Users\PRO-TEC\Desktop\path2050.png"
       d="m 224.98176,105.50269 a 33.440449,33.440449 0 0 0 -33.3709,33.44017 33.440449,33.440449 0 0 0 33.44016,33.44104 33.440449,33.440449 0 0 0 33.44016,-33.44104 33.440449,33.440449 0 0 0 -33.44016,-33.44017 33.440449,33.440449 0 0 0 -0.0693,0 z m -12.85094,33.07168 c 3.48624,-0.0866 7.96981,0.50523 12.89178,0.50523 11.25038,0 20.53328,-3.09322 20.53328,5.89404 0,8.98722 -9.12048,16.27302 -20.37078,16.27302 -11.25038,0 -20.37079,-7.28574 -20.37079,-16.27302 0,-5.05536 2.83418,-6.28795 7.31651,-6.39927 z"
       style="display:inline;opacity:0.99578295;fill:url(#linearGradient1260-5-2-75-3-2);fill-opacity:1;stroke-width:0.59444922;stroke-linecap:round;paint-order:fill markers stroke"
       id="path841-8-48-8-7-0-9-3-8-5-7-3-9-4"
       inkscape:connector-curvature="0" />
    <g
       aria-label="T"
       transform="rotate(14.31404,142.70802,-70.536681)"
       id="text839-5-7-9-2"
       style="font-style:normal;font-weight:normal;font-size:14.60690022px;line-height:0.2;font-family:sans-serif;letter-spacing:-0.42862499px;word-spacing:0px;display:inline;opacity:0.99800002;fill:url(#linearGradient1865);fill-opacity:1;stroke:none;stroke-width:0.26458099" />
    <g
       inkscape:export-ydpi="600"
       inkscape:export-xdpi="600"
       inkscape:export-filename="C:\Users\PRO-TEC\Desktop\path2050.png"
       id="text839-5-7-9-4-1-2-8-6"
       style="font-style:normal;font-weight:normal;font-size:12.16640282px;line-height:0.2;font-family:sans-serif;letter-spacing:-0.35701299px;word-spacing:0px;display:inline;opacity:1;fill:#003380;fill-opacity:0.98039198;stroke:none;stroke-width:0.26458099"
       aria-label="TEG"
       transform="matrix(1.7182407,0,0,1.7182407,-35.47255,65.414656)">
      <path
         inkscape:export-ydpi="600"
         inkscape:export-xdpi="600"
         inkscape:export-filename="C:\Users\PRO-TEC\Desktop\path2050.png"
         id="path2050"
         style="font-style:normal;font-variant:normal;font-weight:normal;font-stretch:normal;line-height:0.2;font-family:'Fredoka One';-inkscape-font-specification:'Fredoka One';fill:url(#linearGradient2063);fill-opacity:1;stroke-width:0.26458099"
         d="m 27.797303,23.820536 h 29.813616 q 1.715896,0 2.520212,0.428834 0.804328,0.375507 1.072441,1.233315 0.268101,0.857936 0.268101,2.25206 0,1.394188 -0.268101,2.252124 -0.268101,0.80434 -0.911568,1.126074 -0.965189,0.482607 -2.734705,0.482607 H 47.315567 v 26.971659 q 0,1.233277 -0.107227,1.823111 -0.05363,0.589835 -0.482596,1.394176 -0.375374,0.750708 -1.394164,1.072441 -1.018808,0.321734 -2.681081,0.321734 -1.662267,0 -2.68108,-0.321734 -0.965187,-0.321733 -1.394159,-1.072441 -0.375374,-0.804341 -0.482596,-1.394176 -0.05363,-0.643429 -0.05363,-1.876744 V 31.59555 H 27.743679 q -1.715892,0 -2.520217,-0.375507 -0.804324,-0.428834 -1.072431,-1.286909 -0.2681,-0.857974 -0.2681,-2.252111 0,-1.394175 0.2681,-2.198478 0.268098,-0.857974 0.911567,-1.179707 0.965189,-0.482569 2.734705,-0.482569 z"
         inkscape:connector-curvature="0" />
      <path
         inkscape:export-ydpi="600"
         inkscape:export-xdpi="600"
         inkscape:export-filename="C:\Users\PRO-TEC\Desktop\path2050.png"
         id="path2052"
         style="font-style:normal;font-variant:normal;font-weight:normal;font-stretch:normal;line-height:0.2;font-family:'Fredoka One';-inkscape-font-specification:'Fredoka One';fill:url(#linearGradient2086);fill-opacity:1;stroke-width:0.26458099"
         d="m 72.309924,53.687748 h 16.515458 q 1.233301,0 1.823141,0.107062 0.64345,0.05372 1.44778,0.482556 1.44778,0.750708 1.44778,4.182488 0,3.753527 -1.984,4.396994 -0.91156,0.321747 -2.788321,0.321747 H 67.537601 q -3.753513,0 -4.396968,-2.037656 -0.321734,-0.857935 -0.321734,-2.73468 V 28.592681 q 0,-2.734718 1.018809,-3.699881 1.018808,-1.018847 3.860754,-1.018847 h 21.126907 q 1.233304,0 1.823134,0.107062 0.64347,0.05372 1.44779,0.482556 1.44779,0.750708 1.44779,4.182488 0,3.753526 -1.98401,4.396994 -0.91157,0.321746 -2.788324,0.321746 H 72.309911 v 5.415752 h 10.617087 q 1.233302,0 1.823137,0.107062 0.643454,0.05372 1.447782,0.482556 1.447783,0.750708 1.447783,4.182488 0,3.753527 -2.037617,4.396994 -0.911569,0.321734 -2.788326,0.321734 H 72.309911 Z"
         inkscape:connector-curvature="0" />
      <path
         inkscape:export-ydpi="600"
         inkscape:export-xdpi="600"
         inkscape:export-filename="C:\Users\PRO-TEC\Desktop\path2050.png"
         id="path2054"
         style="font-style:normal;font-variant:normal;font-weight:normal;font-stretch:normal;line-height:0.2;font-family:'Fredoka One';-inkscape-font-specification:'Fredoka One';fill:url(#linearGradient2094);fill-opacity:1;stroke-width:0.26458099"
         d="m 115.97547,39.478046 h 9.43741 q 2.89558,0.107062 3.53903,1.501416 0.53622,1.018796 0.53622,3.002768 v 11.796768 q 0,1.715909 -1.50141,3.270907 -4.50422,4.665095 -13.51265,4.665095 -7.98962,0 -13.88799,-6.005637 -5.898377,-6.05922 -5.898377,-14.585069 0,-8.525849 6.005617,-14.209702 6.00563,-5.737523 14.1561,-5.737523 6.32735,0 11.95763,4.182488 1.44777,1.072441 1.44777,2.412971 0,1.28691 -1.23329,3.002819 -2.09125,2.841958 -3.80713,2.841958 -1.01881,0 -3.27092,-1.447821 -2.25211,-1.501403 -5.36216,-1.501403 -4.07524,0 -7.23892,2.895578 -3.16366,2.841946 -3.16366,7.507041 0,4.611462 3.21728,7.882381 3.2173,3.217274 7.29254,3.217274 2.94919,0 5.30854,-0.965163 v -5.844764 h -4.23611 q -1.66227,0 -2.35935,-0.428847 -0.69707,-0.428834 -0.91157,-1.233302 -0.2145,-0.857936 -0.2145,-2.252111 0,-1.44777 0.2145,-2.305705 0.2681,-0.857987 0.91157,-1.179721 0.96519,-0.482556 2.57383,-0.482556 z"
         inkscape:connector-curvature="0" />
    </g>
    <ellipse
       inkscape:export-ydpi="600"
       inkscape:export-xdpi="600"
       inkscape:export-filename="C:\Users\PRO-TEC\Desktop\path2050.png"
       style="display:inline;opacity:0.99578295;fill:url(#linearGradient1153-7-1-5-5);fill-opacity:1;stroke-width:0.59471577;stroke-linecap:round;paint-order:fill markers stroke"
       id="path841-8-4-0-8-9-0-0-7-0-7-6-55-3-2-6-1-2"
       cx="-348.34537"
       cy="-59.776062"
       rx="15.474483"
       ry="10.595319"
       transform="matrix(-0.88388727,-0.46770001,0.50474809,-0.86326668,0,0)" />
    <path
       inkscape:export-ydpi="600"
       inkscape:export-xdpi="600"
       inkscape:export-filename="C:\Users\PRO-TEC\Desktop\path2050.png"
       sodipodi:nodetypes="cssssaacassssascscccc"
       id="path948-6-7-6-5-9-1-5-2-3-4-13-6-3"
       style="display:inline;fill:url(#linearGradient1252-0-6-5-2-7);fill-opacity:1;stroke:none;stroke-width:0.59351474px;stroke-linecap:butt;stroke-linejoin:miter;stroke-opacity:1"
       d="m 204.5636,171.56739 c -0.44451,0.0304 -0.8917,0.0887 -1.34449,0.20979 -4.37969,1.12106 -7.3804,6.1547 -8.56554,10.51752 -3.24936,11.96289 -0.9975,25.32216 1.81202,37.39599 2.7311,11.73622 7.39707,24.25165 14.68656,33.84643 1.10846,1.45848 4.60742,4.59154 6.82463,3.36101 8.45975,-4.69507 -0.61833,-19.86579 2.89338,-28.88127 0.63436,-1.62856 1.47731,-4.15152 3.14396,-4.19607 1.66681,0.0529 2.62061,2.52854 3.14412,4.19607 5.10697,16.26708 -10.63068,47.2787 -1.77208,51.11899 1.68076,0.72927 3.50151,-1.53358 4.60972,-2.99205 7.28959,-9.59461 24.50465,-42.79979 27.23568,-54.53605 2.80968,-12.07367 3.72154,-19.94046 0.47253,-31.90321 -0.59218,-2.18151 -2.54427,-8.17461 -5.08217,-11.51601 -2.0377,-2.68272 -5.62248,-5.85083 -7.81227,-6.41135 -0.45208,-0.11595 -0.90062,-0.18246 -1.34455,-0.20979 -6.65552,-0.41274 -12.41902,8.50655 -19.42054,8.64452 -0.006,2.4e-4 -0.006,-0.004 -0.0303,-10e-4 -0.006,-1.5e-4 -0.006,0.004 -0.0303,10e-4 -7.00189,-0.13849 -12.76533,-9.05664 -19.42075,-8.64452 z"
       inkscape:connector-curvature="0" />
    <ellipse
       inkscape:export-ydpi="600"
       inkscape:export-xdpi="600"
       inkscape:export-filename="C:\Users\PRO-TEC\Desktop\path2050.png"
       transform="matrix(-0.83111628,-0.55609867,0.5908303,-0.80679586,0,0)"
       ry="10.595321"
       rx="15.47448"
       cy="-33.976219"
       cx="-243.14853"
       id="path841-8-4-0-8-9-0-1-6-0-9-16-4-8-3-3-6"
       style="display:inline;opacity:0.99578295;fill:url(#linearGradient1161-0-8-5-8);fill-opacity:1;stroke-width:0.59471577;stroke-linecap:round;paint-order:fill markers stroke" />
  </g>
  <g
     inkscape:groupmode="layer"
     id="layer3"
     inkscape:label="Layer 1"
     style="display:inline"
     transform="translate(0,-87)" />
  <g
     inkscape:groupmode="layer"
     id="layer2"
     inkscape:label="iteraciones 1"
     style="display:inline"
     transform="translate(0,-87)" />
</svg>
