{
    "asset" : {
        "generator" : "Khronos glTF Blender I/O v1.1.46",
        "version" : "2.0"
    },
    "scene" : 0,
    "scenes" : [
        {
            "name" : "Scene",
            "nodes" : [
                0,
                1,
                2
            ]
        }
    ],
    "nodes" : [
        {
            "mesh" : 0,
            "name" : "fibroma_traumatico",
            "scale" : [
                0.0021621016785502434,
                0.0036401094403117895,
                0.003640109905973077
            ]
        },
        {
            "mesh" : 1,
            "name" : "epulis1",
            "rotation" : [
                0.18869473040103912,
                -0.8236384391784668,
                -0.4571056067943573,
                0.2776120603084564
            ],
            "scale" : [
                0.0060000550001859665,
                0.005813922267407179,
                0.006313324440270662
            ],
            "translation" : [
                -0.01935610920190811,
                0.025581559166312218,
                0.05021556839346886
            ]
        },
        {
            "mesh" : 2,
            "name" : "epulis2",
            "rotation" : [
                -0.05968748405575752,
                -0.18168313801288605,
                -0.19397428631782532,
                -0.9621863961219788
            ],
            "scale" : [
                0.00488565256819129,
                0.00488565256819129,
                0.00488565256819129
            ],
            "translation" : [
                -0.022267095744609833,
                0.023633841425180435,
                0.05083739385008812
            ]
        }
    ],
    "materials" : [
        {
            "doubleSided" : true,
            "emissiveFactor" : [
                0,
                0,
                0
            ],
            "name" : "fibroma_traumatico",
            "pbrMetallicRoughness" : {
                "baseColorFactor" : [
                    0.7991032004356384,
                    0.2307399958372116,
                    0.2663556933403015,
                    1
                ],
                "metallicFactor" : 0,
                "roughnessFactor" : 0.5
            }
        },
        {
            "doubleSided" : true,
            "emissiveFactor" : [
                0,
                0,
                0
            ],
            "name" : "encia",
            "pbrMetallicRoughness" : {
                "baseColorFactor" : [
                    0.7991032004356384,
                    0.2307399958372116,
                    0.2663556933403015,
                    1
                ],
                "metallicFactor" : 0,
                "roughnessFactor" : 0.5
            }
        }
    ],
    "meshes" : [
        {
            "name" : "Icosphere",
            "primitives" : [
                {
                    "attributes" : {
                        "POSITION" : 0,
                        "NORMAL" : 1,
                        "TANGENT" : 2,
                        "TEXCOORD_0" : 3
                    },
                    "indices" : 4,
                    "material" : 0
                }
            ]
        },
        {
            "name" : "Icosphere.002",
            "primitives" : [
                {
                    "attributes" : {
                        "POSITION" : 5,
                        "NORMAL" : 6,
                        "TANGENT" : 7,
                        "TEXCOORD_0" : 8
                    },
                    "indices" : 9,
                    "material" : 1
                }
            ]
        },
        {
            "name" : "Icosphere.001",
            "primitives" : [
                {
                    "attributes" : {
                        "POSITION" : 10,
                        "NORMAL" : 11,
                        "TANGENT" : 12,
                        "TEXCOORD_0" : 13
                    },
                    "indices" : 14,
                    "material" : 1
                }
            ]
        }
    ],
    "accessors" : [
        {
            "bufferView" : 0,
            "componentType" : 5126,
            "count" : 1643,
            "max" : [
                3.4512763023376465,
                0.98737633228302,
                1.4116652011871338
            ],
            "min" : [
                -2.726839780807495,
                -1.0601686239242554,
                -0.21283389627933502
            ],
            "type" : "VEC3"
        },
        {
            "bufferView" : 1,
            "componentType" : 5126,
            "count" : 1643,
            "type" : "VEC3"
        },
        {
            "bufferView" : 2,
            "componentType" : 5126,
            "count" : 1643,
            "type" : "VEC4"
        },
        {
            "bufferView" : 3,
            "componentType" : 5126,
            "count" : 1643,
            "type" : "VEC2"
        },
        {
            "bufferView" : 4,
            "componentType" : 5123,
            "count" : 5760,
            "type" : "SCALAR"
        },
        {
            "bufferView" : 5,
            "componentType" : 5126,
            "count" : 1907,
            "max" : [
                0.5524167418479919,
                1.1806920766830444,
                1.7100577354431152
            ],
            "min" : [
                -0.5175731778144836,
                -1.0458799600601196,
                -1.4272730350494385
            ],
            "type" : "VEC3"
        },
        {
            "bufferView" : 6,
            "componentType" : 5126,
            "count" : 1907,
            "type" : "VEC3"
        },
        {
            "bufferView" : 7,
            "componentType" : 5126,
            "count" : 1907,
            "type" : "VEC4"
        },
        {
            "bufferView" : 8,
            "componentType" : 5126,
            "count" : 1907,
            "type" : "VEC2"
        },
        {
            "bufferView" : 9,
            "componentType" : 5123,
            "count" : 5760,
            "type" : "SCALAR"
        },
        {
            "bufferView" : 10,
            "componentType" : 5126,
            "count" : 1907,
            "max" : [
                0.4980510473251343,
                1.0184340476989746,
                1.60798180103302
            ],
            "min" : [
                -0.4876629710197449,
                -0.9671343564987183,
                -1.3123399019241333
            ],
            "type" : "VEC3"
        },
        {
            "bufferView" : 11,
            "componentType" : 5126,
            "count" : 1907,
            "type" : "VEC3"
        },
        {
            "bufferView" : 12,
            "componentType" : 5126,
            "count" : 1907,
            "type" : "VEC4"
        },
        {
            "bufferView" : 13,
            "componentType" : 5126,
            "count" : 1907,
            "type" : "VEC2"
        },
        {
            "bufferView" : 14,
            "componentType" : 5123,
            "count" : 5760,
            "type" : "SCALAR"
        }
    ],
    "bufferViews" : [
        {
            "buffer" : 0,
            "byteLength" : 19716,
            "byteOffset" : 0
        },
        {
            "buffer" : 0,
            "byteLength" : 19716,
            "byteOffset" : 19716
        },
        {
            "buffer" : 0,
            "byteLength" : 26288,
            "byteOffset" : 39432
        },
        {
            "buffer" : 0,
            "byteLength" : 13144,
            "byteOffset" : 65720
        },
        {
            "buffer" : 0,
            "byteLength" : 11520,
            "byteOffset" : 78864
        },
        {
            "buffer" : 0,
            "byteLength" : 22884,
            "byteOffset" : 90384
        },
        {
            "buffer" : 0,
            "byteLength" : 22884,
            "byteOffset" : 113268
        },
        {
            "buffer" : 0,
            "byteLength" : 30512,
            "byteOffset" : 136152
        },
        {
            "buffer" : 0,
            "byteLength" : 15256,
            "byteOffset" : 166664
        },
        {
            "buffer" : 0,
            "byteLength" : 11520,
            "byteOffset" : 181920
        },
        {
            "buffer" : 0,
            "byteLength" : 22884,
            "byteOffset" : 193440
        },
        {
            "buffer" : 0,
            "byteLength" : 22884,
            "byteOffset" : 216324
        },
        {
            "buffer" : 0,
            "byteLength" : 30512,
            "byteOffset" : 239208
        },
        {
            "buffer" : 0,
            "byteLength" : 15256,
            "byteOffset" : 269720
        },
        {
            "buffer" : 0,
            "byteLength" : 11520,
            "byteOffset" : 284976
        }
    ],
    "buffers" : [
        {
            "byteLength" : 296496,
            "uri" : "data:application/octet-stream;base64,"
        }
    ]
}
